<svg width="32" height="32" viewBox="0 0 32 32" fill="none" xmlns="http://www.w3.org/2000/svg">
<path fill-rule="evenodd" clip-rule="evenodd" d="M16 5.33331C17.14 5.33331 18.3094 5.36265 19.4427 5.41065L20.7814 5.47465L22.0627 5.55065L23.2627 5.63198L24.3587 5.71731C25.5483 5.80783 26.6678 6.31523 27.52 7.15012C28.3722 7.98501 28.9024 9.09384 29.0174 10.2813L29.0707 10.848L29.1707 12.0613C29.264 13.3186 29.3334 14.6893 29.3334 16C29.3334 17.3106 29.264 18.6813 29.1707 19.9386L29.0707 21.152L29.0174 21.7186C28.9024 22.9063 28.3719 24.0153 27.5195 24.8502C26.667 25.6852 25.5472 26.1924 24.3574 26.2826L23.264 26.3666L22.064 26.4493L20.7814 26.5253L19.4427 26.5893C18.2958 26.639 17.148 26.6648 16 26.6666C14.8521 26.6648 13.7042 26.639 12.5574 26.5893L11.2187 26.5253L9.93735 26.4493L8.73735 26.3666L7.64135 26.2826C6.45177 26.1921 5.33229 25.6847 4.48008 24.8498C3.62787 24.015 3.09761 22.9061 2.98269 21.7186L2.92935 21.152L2.82935 19.9386C2.7278 18.6281 2.67354 17.3144 2.66669 16C2.66669 14.6893 2.73602 13.3186 2.82935 12.0613L2.92935 10.848L2.98269 10.2813C3.09756 9.09405 3.62764 7.98538 4.47957 7.15052C5.33151 6.31566 6.45068 5.80813 7.64002 5.71731L8.73469 5.63198L9.93469 5.55065L11.2174 5.47465L12.556 5.41065C13.7034 5.36095 14.8516 5.33517 16 5.33331ZM13.3334 12.7666V19.2333C13.3334 19.8493 14 20.2333 14.5334 19.9266L20.1334 16.6933C20.2552 16.6232 20.3564 16.5221 20.4268 16.4004C20.4972 16.2787 20.5342 16.1406 20.5342 16C20.5342 15.8594 20.4972 15.7213 20.4268 15.5995C20.3564 15.4778 20.2552 15.3768 20.1334 15.3066L14.5334 12.0746C14.4117 12.0044 14.2737 11.9674 14.1332 11.9675C13.9928 11.9675 13.8548 12.0045 13.7331 12.0748C13.6115 12.1451 13.5105 12.2461 13.4403 12.3678C13.3702 12.4895 13.3333 12.6275 13.3334 12.768V12.7666Z" fill="#39B8BE"/>
</svg>
