<svg width="32" height="32" viewBox="0 0 32 32" fill="none" xmlns="http://www.w3.org/2000/svg">
<path d="M17.3707 2.66669C18.8707 2.67069 19.632 2.67869 20.2893 2.69735L20.548 2.70669C20.8467 2.71735 21.1413 2.73069 21.4973 2.74669C22.916 2.81335 23.884 3.03735 24.7333 3.36669C25.6133 3.70535 26.3547 4.16402 27.096 4.90402C27.7742 5.57033 28.2989 6.37665 28.6333 7.26669C28.9627 8.11602 29.1867 9.08402 29.2533 10.504C29.2693 10.8587 29.2827 11.1534 29.2933 11.4534L29.3013 11.712C29.3213 12.368 29.3293 13.1294 29.332 14.6294L29.3333 15.624V17.3707C29.3366 18.3432 29.3263 19.3158 29.3027 20.288L29.2947 20.5467C29.284 20.8467 29.2707 21.1414 29.2547 21.496C29.188 22.916 28.9613 23.8827 28.6333 24.7334C28.2989 25.6234 27.7742 26.4297 27.096 27.096C26.4297 27.7743 25.6234 28.2989 24.7333 28.6334C23.884 28.9627 22.916 29.1867 21.4973 29.2534L20.548 29.2934L20.2893 29.3014C19.632 29.32 18.8707 29.3294 17.3707 29.332L16.376 29.3334H14.6307C13.6577 29.3368 12.6847 29.3266 11.712 29.3027L11.4533 29.2947C11.1368 29.2827 10.8203 29.2689 10.504 29.2534C9.08532 29.1867 8.11732 28.9627 7.26665 28.6334C6.37709 28.2988 5.57124 27.7741 4.90532 27.096C4.22658 26.4298 3.70146 25.6235 3.36665 24.7334C3.03732 23.884 2.81332 22.916 2.74665 21.496L2.70665 20.5467L2.69999 20.288C2.67541 19.3158 2.66429 18.3432 2.66665 17.3707V14.6294C2.66296 13.6568 2.67274 12.6843 2.69599 11.712L2.70532 11.4534C2.71599 11.1534 2.72932 10.8587 2.74532 10.504C2.81199 9.08402 3.03599 8.11735 3.36532 7.26669C3.70091 6.37628 4.22695 5.56994 4.90665 4.90402C5.57219 4.22609 6.37757 3.70145 7.26665 3.36669C8.11732 3.03735 9.08399 2.81335 10.504 2.74669C10.8587 2.73069 11.1547 2.71735 11.4533 2.70669L11.712 2.69869C12.6842 2.675 13.6568 2.66477 14.6293 2.66802L17.3707 2.66669ZM16 9.33335C14.2319 9.33335 12.5362 10.0357 11.2859 11.286C10.0357 12.5362 9.33332 14.2319 9.33332 16C9.33332 17.7681 10.0357 19.4638 11.2859 20.7141C12.5362 21.9643 14.2319 22.6667 16 22.6667C17.7681 22.6667 19.4638 21.9643 20.714 20.7141C21.9643 19.4638 22.6667 17.7681 22.6667 16C22.6667 14.2319 21.9643 12.5362 20.714 11.286C19.4638 10.0357 17.7681 9.33335 16 9.33335ZM16 12C16.5253 11.9999 17.0454 12.1033 17.5308 12.3042C18.0161 12.5052 18.4571 12.7998 18.8286 13.1711C19.2001 13.5425 19.4948 13.9834 19.6959 14.4687C19.897 14.9539 20.0006 15.4741 20.0007 15.9994C20.0007 16.5246 19.8974 17.0448 19.6964 17.5301C19.4955 18.0155 19.2009 18.4565 18.8296 18.828C18.4582 19.1995 18.0173 19.4942 17.532 19.6953C17.0467 19.8964 16.5266 19.9999 16.0013 20C14.9405 20 13.923 19.5786 13.1729 18.8284C12.4227 18.0783 12.0013 17.0609 12.0013 16C12.0013 14.9392 12.4227 13.9217 13.1729 13.1716C13.923 12.4214 14.9405 12 16.0013 12M23.0013 7.33335C22.5593 7.33335 22.1354 7.50895 21.8228 7.82151C21.5102 8.13407 21.3347 8.55799 21.3347 9.00002C21.3347 9.44205 21.5102 9.86597 21.8228 10.1785C22.1354 10.4911 22.5593 10.6667 23.0013 10.6667C23.4433 10.6667 23.8673 10.4911 24.1798 10.1785C24.4924 9.86597 24.668 9.44205 24.668 9.00002C24.668 8.55799 24.4924 8.13407 24.1798 7.82151C23.8673 7.50895 23.4433 7.33335 23.0013 7.33335Z" fill="#39B8BE"/>
</svg>
